HIERARCHY
ROOT Hips
{
	OFFSET -0.837515 112.758026 -1.479419
	CHANNELS 6 Xposition Yposition Zposition Xrotation Yrotation Zrotation
	JOINT Chest
	{
		OFFSET -0.098387 13.354088 2.795140
		CHANNELS 3 Xrotation Yrotation Zrotation
		JOINT Chest2
		{
			OFFSET -1.341344 20.906395 4.493315
			CHANNELS 3 Xrotation Yrotation Zrotation
			JOINT Chest3
			{
				OFFSET -0.927614 14.881241 -0.712828
				CHANNELS 3 Xrotation Yrotation Zrotation
				JOINT Neck
				{
					OFFSET -0.046812 17.096207 2.516642
					CHANNELS 3 Xrotation Yrotation Zrotation
					JOINT Head
					{
						OFFSET -0.481438 10.271927 2.020772
						CHANNELS 3 Xrotation Yrotation Zrotation
						End Site
						{
							OFFSET -0.471002 10.286102 1.949852
						}
					}
				}
				JOINT LeftCollar
				{
					OFFSET 4.369844 12.754013 4.477060
					CHANNELS 3 Xrotation Yrotation Zrotation
					JOINT LeftUpArm
					{
						OFFSET 14.066879 8.075348 -6.738767
						CHANNELS 3 Xrotation Yrotation Zrotation
						JOINT LeftLowArm
						{
							OFFSET 4.022307 29.730118 15.481237
							CHANNELS 3 Xrotation Yrotation Zrotation
							JOINT LeftHand
							{
								OFFSET -1.477125 29.237732 6.627211
								CHANNELS 3 Xrotation Yrotation Zrotation
								End Site
								{
									OFFSET -0.322834 6.390076 1.448421
								}
							}
						}
					}
				}
				JOINT RightCollar
				{
					OFFSET -4.024691 12.643036 5.075853
					CHANNELS 3 Xrotation Yrotation Zrotation
					JOINT RightUpArm
					{
						OFFSET -15.180256 7.298325 -4.979001
						CHANNELS 3 Xrotation Yrotation Zrotation
						JOINT RightLowArm
						{
							OFFSET -4.554708 29.912445 14.974464
							CHANNELS 3 Xrotation Yrotation Zrotation
							JOINT RightHand
							{
								OFFSET 2.451096 28.706772 8.418331
								CHANNELS 3 Xrotation Yrotation Zrotation
								End Site
								{
									OFFSET 0.535706 6.274155 1.839901
								}
							}
						}
					}
				}
			}
		}
	}
	JOINT LeftUpLeg
	{
		OFFSET 10.019650 0.099915 -0.125693
		CHANNELS 3 Xrotation Yrotation Zrotation
		JOINT LeftLowLeg
		{
			OFFSET 6.263965 -46.870773 -2.807553
			CHANNELS 3 Xrotation Yrotation Zrotation
			JOINT LeftFoot
			{
				OFFSET 1.042981 -41.724709 -16.078815
				CHANNELS 3 Xrotation Yrotation Zrotation
				JOINT LeftToe
				{
					OFFSET 0.585295 -19.271435 13.705063
					CHANNELS 3 Xrotation Yrotation Zrotation
					End Site
					{
						OFFSET 2.508081 -6.233409 22.680676
					}
				}
			}
		}
	}
	JOINT RightUpLeg
	{
		OFFSET -10.019651 -0.100113 0.125652
		CHANNELS 3 Xrotation Yrotation Zrotation
		JOINT RightLowLeg
		{
			OFFSET -3.054274 -47.181602 -2.929045
			CHANNELS 3 Xrotation Yrotation Zrotation
			JOINT RightFoot
			{
				OFFSET 0.113817 -41.172462 -17.475548
				CHANNELS 3 Xrotation Yrotation Zrotation
				JOINT RightToe
				{
					OFFSET 0.112094 -20.486330 11.826010
					CHANNELS 3 Xrotation Yrotation Zrotation
					End Site
					{
						OFFSET -2.692586 -8.467955 21.922586
					}
				}
			}
		}
	}
}
MOTION
Frames: 13
Frame Time: 0.033333
0.773221 105.080345 -1.111722 -4.342546 -2.365410 -2.054022 -0.282757 -1.110944 0.202330 5.604627 1.531207 0.846466 -3.197668 0.208368 0.012890 -1.840659 6.196259 2.078721 -0.000001 0.000001 -0.000000 12.634000 5.731337 -52.542968 36.681333 1.988419 -99.896899 39.792764 20.934064 -2.174720 -0.000001 -0.000002 0.000002 17.702607 -3.750092 53.960079 47.278778 2.513840 90.682332 33.871577 -18.859448 -3.634663 0.000001 -0.000001 0.000001 6.725346 0.524000 -1.375705 -7.479972 2.237507 2.416363 -6.051179 -1.584569 3.908505 0.000001 0.000001 -0.000002 4.520655 0.692944 2.380721 -5.228238 -3.719428 -0.912167 -6.253261 -2.450468 -4.276376 -0.000004 0.000001 0.000001 
0.773333 105.083900 -1.114210 -4.739374 -2.723449 -1.992707 0.119364 -1.072400 -0.005195 6.500058 1.672590 0.632888 -3.993770 0.585902 0.334707 -1.634156 6.114943 2.081578 0.000000 -0.000002 -0.000000 12.766302 5.549076 -52.517905 36.814911 2.113722 -99.881367 40.182068 21.078358 -1.684038 -0.000003 -0.000005 -0.000003 17.762971 -3.920213 53.892358 47.477465 2.793634 90.426480 33.899014 -18.984289 -3.913823 -0.000003 0.000003 -0.000000 6.940661 0.557962 -1.481378 -7.311096 2.279407 2.321201 -6.367256 -1.273749 4.268291 0.000000 0.000001 -0.000001 4.333509 0.714307 2.303447 -4.637993 -3.676362 -1.082296 -6.223136 -2.318916 -4.297423 -0.000002 -0.000000 0.000000 
0.776870 105.084366 -1.120413 -4.617748 -2.610511 -2.059781 -0.228202 -1.129907 0.148160 6.393230 1.653984 0.696379 -3.830424 0.137277 0.212129 -1.333211 6.312410 1.943381 0.000000 0.000000 -0.000000 12.861371 5.614398 -52.690309 36.890801 1.922045 -99.632393 39.812780 21.140749 -1.410173 -0.000002 -0.000004 0.000001 17.826924 -3.701230 53.738030 47.601412 2.996138 90.275840 33.722406 -18.942898 -3.716840 -0.000001 0.000001 -0.000000 6.853490 0.500723 -1.379696 -7.362894 2.271583 2.281746 -6.437780 -1.277475 4.325214 0.000001 0.000001 0.000000 4.332619 0.738326 2.339781 -4.799155 -3.757330 -0.998600 -6.460598 -2.345839 -4.347731 0.000001 0.000001 0.000002 
0.781584 105.092896 -1.131137 -4.709383 -2.685503 -2.126599 -0.126691 -1.161455 0.226595 7.396793 1.651499 0.698668 -4.852613 0.101394 0.166423 -2.041470 6.340562 2.072474 -0.000001 0.000001 -0.000000 12.998912 5.031358 -52.712921 37.001013 1.788184 -99.635951 39.301120 21.394135 -0.681294 -0.000002 0.000003 -0.000001 17.933872 -3.585857 53.805604 47.705026 3.175818 89.875324 33.544367 -19.182849 -3.760400 0.000000 -0.000001 0.000003 6.728702 0.522525 -1.343524 -7.067484 2.276849 2.302968 -6.628985 -1.550873 4.180496 0.000001 0.000001 0.000000 4.536062 0.694358 2.335419 -4.906259 -3.813293 -0.979039 -6.618423 -2.176233 -4.241042 -0.000004 0.000003 -0.000001 
0.787607 105.101295 -1.143439 -4.628009 -2.707586 -2.163430 -0.295590 -1.179833 0.248127 7.508895 1.663939 0.693010 -4.918426 0.068472 0.222256 -1.945970 6.454852 2.057304 0.000000 0.000000 -0.000000 13.080240 5.100647 -52.779891 37.133157 1.425430 -99.346310 38.865706 21.569268 -0.715764 -0.000003 -0.000005 -0.000002 18.087946 -3.370049 53.871153 47.861454 3.299552 89.528310 33.295967 -19.350317 -4.232260 -0.000002 -0.000001 0.000002 6.523306 0.507347 -1.312783 -6.867634 2.227784 2.292876 -6.892858 -1.525383 4.247871 0.000000 0.000000 0.000000 4.195470 0.710194 2.373754 -4.457858 -3.722427 -0.934988 -6.726300 -2.208689 -4.204423 -0.000001 0.000001 0.000000 
0.793611 105.105576 -1.152282 -4.468801 -2.422126 -2.152723 0.393503 -1.196862 0.286443 5.813858 1.554154 0.898912 -3.907087 -0.010707 0.038464 -2.214963 6.401574 2.093605 -0.000001 0.000001 0.000000 13.136016 5.373567 -52.663750 37.304970 1.126608 -99.159676 38.774800 21.818898 -0.921070 -0.000003 -0.000001 -0.000002 18.181371 -3.417739 53.681257 48.078767 3.483072 89.505258 33.093581 -19.659492 -4.314144 -0.000002 0.000006 0.000003 6.500250 0.495215 -1.260379 -6.942212 2.254070 2.260520 -6.845790 -1.664398 4.141138 0.000001 0.000001 0.000000 4.101028 0.728360 2.441754 -4.559286 -3.748953 -0.982918 -6.565712 -2.313372 -4.291585 -0.000001 0.000003 0.000002 
0.801128 105.100533 -1.155194 -4.685876 -2.682913 -2.184515 0.688952 -1.184360 0.235969 4.824411 1.496954 0.978351 -3.115113 0.215295 0.048402 -2.043043 6.442795 2.070972 -0.000001 0.000000 0.000000 13.123131 5.437116 -52.537446 37.347498 1.440056 -99.479315 38.949482 21.907456 -1.007991 -0.000001 -0.000000 -0.000001 18.124882 -3.715338 53.477745 48.126735 3.455039 89.872852 33.288915 -19.802826 -4.113878 0.000000 -0.000001 0.000001 7.046712 0.575643 -1.312014 -7.181411 2.225697 2.276304 -6.442114 -1.518475 4.145477 -0.000001 0.000001 -0.000001 4.632152 0.673258 2.416448 -4.841068 -3.783600 -1.083655 -6.437335 -1.869964 -4.053977 -0.000003 0.000000 0.000001 
0.811904 105.091751 -1.154741 -4.508128 -2.596913 -2.176429 0.666840 -1.160842 0.249946 4.050624 1.402358 1.058175 -2.436869 0.439375 0.055113 -2.083062 6.314967 2.019263 0.000000 0.000000 -0.000000 12.927362 5.078760 -52.170641 37.033098 1.601835 -100.022725 39.528828 21.412467 -1.118456 -0.000002 -0.000004 -0.000001 17.819615 -4.278882 53.426382 47.763827 3.210554 90.396625 33.754969 -19.570358 -3.633723 -0.000000 0.000002 -0.000001 6.881533 0.581551 -1.328470 -7.130545 2.262858 2.304238 -6.530389 -1.667963 4.107082 -0.000001 0.000001 0.000000 4.282693 0.623445 2.429018 -4.445997 -3.788274 -1.137047 -6.389645 -1.945044 -4.165246 -0.000002 0.000000 0.000002 
0.823779 105.083794 -1.155959 -4.293311 -2.738422 -2.183086 0.631646 -1.163625 0.256355 3.639872 1.436031 1.014817 -2.123891 0.167216 0.116029 -1.946590 6.485429 1.859213 -0.000001 -0.000001 -0.000000 12.823373 5.852531 -52.154003 37.076958 1.552808 -100.059205 39.968402 21.362236 -1.218957 -0.000003 0.000002 -0.000000 17.869701 -3.465359 53.040985 47.837156 3.313084 90.567933 33.576746 -19.521736 -3.946607 -0.000001 0.000001 -0.000000 6.795237 0.533609 -1.352784 -7.283302 2.260551 2.286382 -6.262543 -1.481127 4.194103 -0.000002 0.000001 -0.000001 4.146109 0.658767 2.411247 -4.677349 -3.834025 -1.161013 -6.312084 -1.987705 -4.227742 -0.000002 0.000001 0.000000 
0.833002 105.079979 -1.156331 -4.220373 -2.709662 -2.242171 0.716392 -1.145778 0.195572 3.183926 1.345070 1.136633 -1.820874 0.455815 0.087394 -1.768819 6.219294 2.058968 0.000000 0.000000 0.000000 12.949455 5.083133 -51.725965 37.114558 1.420499 -100.135470 39.937567 21.483771 -1.330890 -0.000002 -0.000006 0.000000 17.823573 -4.118625 53.150637 47.853863 3.372128 90.507772 33.661040 -19.680020 -3.410667 0.000000 -0.000001 0.000002 6.695201 0.550060 -1.232538 -7.308687 2.268791 2.253952 -6.503276 -1.674886 4.089293 -0.000001 0.000001 -0.000001 4.224154 0.621710 2.510553 -4.884080 -3.820188 -1.192236 -6.092342 -2.038754 -4.222388 -0.000003 -0.000001 0.000001 
0.840453 105.075424 -1.154204 -4.329909 -2.703921 -2.274017 0.682480 -1.163045 0.234662 3.396555 1.351060 1.154799 -1.896735 0.462210 0.056871 -1.813801 6.228235 2.108025 0.000000 0.000000 -0.000000 12.967592 5.177101 -51.599832 37.146547 1.375295 -100.142526 40.164121 21.394447 -1.581995 -0.000003 -0.000005 -0.000001 17.805258 -4.428739 53.160158 47.925880 3.312791 90.520900 33.960192 -19.582062 -3.363986 0.000000 -0.000000 -0.000000 6.870892 0.519392 -1.195093 -7.349462 2.236263 2.228811 -6.264490 -1.528381 4.116947 0.000000 0.000001 -0.000001 4.429656 0.659611 2.522872 -4.949205 -3.788333 -1.191049 -6.109640 -2.242231 -4.322168 -0.000003 0.000001 0.000001 
0.854574 105.075371 -1.149198 -4.500301 -2.791834 -2.246878 0.354072 -1.151141 0.138084 4.727045 1.384542 1.131284 -2.950336 0.428868 0.078896 -1.312919 6.211400 2.154161 -0.000001 0.000001 -0.000000 13.032938 5.453882 -51.632675 37.250609 1.208977 -99.917567 40.245479 21.473848 -1.663234 -0.000001 0.000002 -0.000001 17.886242 -4.622045 53.155203 48.078497 3.335408 90.413878 34.058171 -19.621744 -3.365308 -0.000000 0.000003 0.000001 7.222268 0.535624 -1.290569 -7.571238 2.228837 2.211259 -6.565330 -1.427567 4.279878 0.000001 0.000001 0.000000 4.444950 0.700624 2.436998 -4.698038 -3.737294 -1.145661 -6.221342 -1.925260 -4.116255 -0.000001 -0.000001 0.000000 
0.869455 105.076485 -1.148396 -4.167980 -2.924674 -2.275162 -0.076596 -1.150957 0.143464 5.021174 1.414116 1.023564 -2.963152 0.200983 0.171114 -1.954781 6.321338 2.065634 -0.000001 0.000000 -0.000000 12.907525 5.957187 -51.820027 37.115316 0.912927 -99.516532 40.217820 21.436940 -1.859182 -0.000002 -0.000002 -0.000000 17.941071 -3.949905 53.077205 47.953344 3.472889 90.120733 33.950698 -19.679595 -3.797951 -0.000003 0.000001 0.000001 6.773776 0.591589 -1.266143 -7.364070 2.263263 2.151520 -6.434761 -1.495939 4.217020 -0.000000 0.000000 -0.000001 3.931989 0.651874 2.437562 -4.425911 -3.753910 -1.137053 -6.099635 -1.771328 -4.079988 -0.000003 0.000000 -0.000000 
